<svg xmlns="http://www.w3.org/2000/svg" version="1.1" xmlns:xlink="http://www.w3.org/1999/xlink" width="1500" height="1500"><svg width="1500" xmlns="http://www.w3.org/2000/svg" height="1500" id="SvgjsSvg1189" viewBox="0 0 1500 1500" xmlns:xlink="http://www.w3.org/1999/xlink" fill="none" version="1.1"><g id="SvgjsG1188" rx="0" ry="0"><g id="SvgjsG1187"><g class="fills" id="SvgjsG1186"><ellipse cx="750" cy="750" rx="750" ry="750" transform="matrix(1.000000, 0.000000, 0.000000, 1.000000, 0.000000, 0.000000)" style="fill: rgb(0, 0, 0); fill-opacity: 1;"></ellipse></g></g><g id="SvgjsG1185" rx="0" ry="0"><g id="SvgjsG1184"><g class="fills" id="SvgjsG1183"><path d="M877.643,212.692C584.240,219.953,348.241,464.247,348.241,764.107C348.241,1068.532,591.482,1315.687,891.087,1315.687C986.900,1315.687,1076.949,1290.410,1155.122,1246.067C1127.676,1250.348,1099.492,1252.602,1070.787,1252.602C773.938,1252.602,532.934,1011.598,532.934,714.748C532.934,485.996,676.048,290.406,877.643,212.692Z" style="fill: rgb(135, 0, 255); fill-opacity: 0.766667;"></path></g></g><g id="SvgjsG1182"><g class="fills" id="SvgjsG1181"><path d="M1136.516,349.559C878.791,209.146,552.263,302.712,402.334,562.398C250.121,826.038,337.196,1161.701,596.661,1311.503C679.638,1359.410,770.261,1382.544,860.133,1383.227C834.223,1373.212,808.689,1361.072,783.829,1346.720C526.750,1198.295,438.536,869.077,586.961,611.998C701.337,413.893,923.072,316.064,1136.516,349.559Z" style="fill: rgb(170, 74, 255); fill-opacity: 0.766667;"></path></g></g><g id="SvgjsG1180"><g class="fills" id="SvgjsG1179"><path d="M1292.273,597.527C1139.283,347.063,809.719,264.829,550.033,414.759C286.393,566.971,193.971,901.202,343.773,1160.667C391.680,1243.644,458.595,1308.990,536.084,1354.518C518.653,1332.889,502.610,1309.609,488.257,1284.749C339.832,1027.670,428.046,698.452,685.125,550.028C883.230,435.651,1124.173,461.797,1292.273,597.527Z" style="fill: rgb(135, 0, 255); fill-opacity: 0.766667;"></path></g></g><g id="SvgjsG1178"><g class="fills" id="SvgjsG1177"><path d="M1303.179,890.151C1295.918,596.748,1051.624,360.749,751.765,360.749C447.339,360.749,200.184,603.990,200.184,903.595C200.184,999.408,225.461,1089.457,269.805,1167.630C265.523,1140.184,263.270,1112.001,263.270,1083.295C263.270,786.446,504.274,545.442,801.123,545.442C1029.875,545.442,1225.465,688.556,1303.179,890.151Z" style="fill: rgb(255, 255, 255); fill-opacity: 1;"></path></g></g><g id="SvgjsG1176"><g class="fills" id="SvgjsG1175"><path d="M1166.312,1149.024C1306.725,891.299,1213.159,564.771,953.474,414.842C689.833,262.629,354.170,349.704,204.368,609.169C156.461,692.146,133.327,782.769,132.644,872.641C142.659,846.731,154.799,821.197,169.152,796.337C317.576,539.258,646.794,451.044,903.873,599.469C1101.978,713.845,1199.807,935.581,1166.312,1149.024Z" style="fill: rgb(255, 255, 255); fill-opacity: 1;"></path></g></g><g id="SvgjsG1174"><g class="fills" id="SvgjsG1173"><path d="M918.344,1304.781C1168.809,1151.791,1251.042,822.227,1101.113,562.541C948.900,298.901,614.669,206.479,355.204,356.281C272.227,404.188,206.881,471.103,161.354,548.592C182.982,531.161,206.262,515.118,231.122,500.765C488.201,352.340,817.419,440.554,965.844,697.633C1080.220,895.738,1054.074,1136.681,918.344,1304.781Z" style="fill: rgb(170, 74, 255); fill-opacity: 0.766667;"></path></g></g><g id="SvgjsG1172"><g class="fills" id="SvgjsG1171"><path d="M625.720,1315.687C919.123,1308.426,1155.122,1064.132,1155.122,764.273C1155.122,459.847,911.881,212.692,612.276,212.692C516.463,212.692,426.414,237.969,348.241,282.313C375.688,278.031,403.871,275.778,432.576,275.778C729.425,275.778,970.430,516.782,970.430,813.631C970.430,1042.383,827.315,1237.973,625.720,1315.687Z" style="fill: rgb(255, 255, 255); fill-opacity: 1;"></path></g></g><g id="SvgjsG1170"><g class="fills" id="SvgjsG1169"><path d="M366.847,1178.820C624.572,1319.233,951.100,1225.667,1101.029,965.982C1253.242,702.341,1166.167,366.678,906.702,216.876C823.725,168.969,733.102,145.835,643.231,145.152C669.140,155.167,694.674,167.307,719.534,181.660C976.613,330.084,1064.827,659.302,916.402,916.381C802.026,1114.486,580.291,1212.315,366.847,1178.820Z" style="fill: rgb(170, 74, 255); fill-opacity: 0.766667;"></path></g></g><g id="SvgjsG1168"><g class="fills" id="SvgjsG1167"><path d="M211.090,930.853C364.080,1181.317,693.644,1263.550,953.330,1113.621C1216.970,961.408,1309.392,627.178,1159.590,367.712C1111.683,284.736,1044.768,219.389,967.279,173.862C984.710,195.490,1000.753,218.770,1015.106,243.630C1163.531,500.709,1075.317,829.927,818.238,978.352C620.133,1092.728,379.190,1066.582,211.090,930.853Z" style="fill: rgb(242, 242, 242); fill-opacity: 1;"></path></g></g><g id="SvgjsG1166"><g class="fills" id="SvgjsG1165"><path d="M200.184,638.228C207.445,931.631,451.739,1167.630,751.598,1167.630C1056.024,1167.630,1303.179,924.389,1303.179,624.785C1303.179,528.971,1277.902,438.922,1233.558,360.749C1237.840,388.196,1240.094,416.379,1240.094,445.084C1240.094,741.934,999.089,982.938,702.240,982.938C473.488,982.938,277.898,839.823,200.184,638.228Z" style="fill: rgb(170, 74, 255); fill-opacity: 0.766667;"></path></g></g><g id="SvgjsG1164"><g class="fills" id="SvgjsG1163"><path d="M337.051,379.355C196.638,637.080,290.204,963.608,549.890,1113.538C813.530,1265.750,1149.193,1178.675,1298.995,919.210C1346.902,836.233,1370.036,745.610,1370.719,655.739C1360.704,681.648,1348.564,707.183,1334.212,732.042C1185.787,989.121,856.569,1077.335,599.490,928.910C401.385,814.534,303.556,592.799,337.051,379.355Z" style="fill: rgb(255, 255, 255); fill-opacity: 1;"></path></g></g><g id="SvgjsG1162"><g class="fills" id="SvgjsG1161"><path d="M410.176,313.202C227.143,542.629,262.586,880.443,492.292,1073.189C725.495,1268.870,1071.179,1241.405,1263.761,1011.895C1325.349,938.498,1363.868,853.268,1380.147,764.881C1365.785,788.658,1349.395,811.696,1330.944,833.686C1140.133,1061.086,800.599,1090.791,573.199,899.980C397.964,752.941,340.126,517.586,410.176,313.202Z" style="fill: rgb(170, 74, 255); fill-opacity: 0.766667;"></path></g></g></g></g></svg><style>@media (prefers-color-scheme: light) { :root { filter: none; } }
@media (prefers-color-scheme: dark) { :root { filter: none; } }
</style></svg>